<svg width="21" height="20" viewBox="0 0 21 20" fill="none" xmlns="http://www.w3.org/2000/svg">
<path d="M5.29005 19.6782H1.15014V6.64966H5.29005V19.6782ZM3.22009 4.82324C1.88071 4.82324 0.906616 3.84914 0.906616 2.50976C0.906616 1.17038 2.00247 0.196289 3.22009 0.196289C4.55947 0.196289 5.53357 1.17038 5.53357 2.50976C5.53357 3.84914 4.55947 4.82324 3.22009 4.82324ZM20.3885 19.6782H16.2486V12.616C16.2486 10.546 15.3963 9.93723 14.1786 9.93723C12.961 9.93723 11.7434 10.9113 11.7434 12.7378V19.6782H7.60352V6.64966H11.4999V8.47609C11.8652 7.62376 13.3263 6.28438 15.3963 6.28438C17.7097 6.28438 20.145 7.62376 20.145 11.6419V19.6782H20.3885Z" fill="white"/>
</svg>
