<svg width="1865" height="1242" viewBox="0 0 1865 1242" fill="none" xmlns="http://www.w3.org/2000/svg">
<path d="M0 0.5H1917V-0.5H0V0.5ZM0 20.625H1917V19.625H0V20.625ZM0 40.75H1917V39.75H0V40.75ZM0 60.875H1917V59.875H0V60.875ZM0 81H1917V80H0V81ZM0 101.125H1917V100.125H0V101.125ZM0 121.25H1917V120.25H0V121.25ZM0 141.375H1917V140.375H0V141.375ZM0 161.5H1917V160.5H0V161.5Z" fill="white" fill-opacity="0.03"/>
<path d="M0 482.5H1917V481.5H0V482.5ZM0 502.625H1917V501.625H0V502.625ZM0 522.75H1917V521.75H0V522.75ZM0 542.875H1917V541.875H0V542.875ZM0 563H1917V562H0V563ZM0 583.125H1917V582.125H0V583.125ZM0 603.25H1917V602.25H0V603.25ZM0 623.375H1917V622.375H0V623.375ZM0 643.5H1917V642.5H0V643.5Z" fill="white" fill-opacity="0.03"/>
<path d="M0 964.5H1917V963.5H0V964.5ZM0 984.625H1917V983.625H0V984.625ZM0 1004.75H1917V1003.75H0V1004.75ZM0 1024.88H1917V1023.88H0V1024.88ZM0 1045H1917V1044H0V1045ZM0 1065.12H1917V1064.12H0V1065.12ZM0 1085.25H1917V1084.25H0V1085.25ZM0 1105.38H1917V1104.38H0V1105.38ZM0 1125.5H1917V1124.5H0V1125.5Z" fill="white" fill-opacity="0.03"/>
<path d="M0 1138.5H1917V1137.5H0V1138.5ZM0 1158.62H1917V1157.62H0V1158.62ZM0 1178.75H1917V1177.75H0V1178.75ZM0 1198.88H1917V1197.88H0V1198.88ZM0 1219H1917V1218H0V1219ZM0 1239.12H1917V1238.12H0V1239.12ZM0 1259.25H1917V1258.25H0V1259.25ZM0 1279.38H1917V1278.38H0V1279.38ZM0 1299.5H1917V1298.5H0V1299.5Z" fill="white" fill-opacity="0.03"/>
<path d="M0 161.5H1917V160.5H0V161.5ZM0 181.625H1917V180.625H0V181.625ZM0 201.75H1917V200.75H0V201.75ZM0 221.875H1917V220.875H0V221.875ZM0 242H1917V241H0V242ZM0 262.125H1917V261.125H0V262.125ZM0 282.25H1917V281.25H0V282.25ZM0 302.375H1917V301.375H0V302.375ZM0 322.5H1917V321.5H0V322.5Z" fill="white" fill-opacity="0.03"/>
<path d="M0 643.5H1917V642.5H0V643.5ZM0 663.625H1917V662.625H0V663.625ZM0 683.75H1917V682.75H0V683.75ZM0 703.875H1917V702.875H0V703.875ZM0 724H1917V723H0V724ZM0 744.125H1917V743.125H0V744.125ZM0 764.25H1917V763.25H0V764.25ZM0 784.375H1917V783.375H0V784.375ZM0 804.5H1917V803.5H0V804.5Z" fill="white" fill-opacity="0.03"/>
<path d="M0 321.5H1917V320.5H0V321.5ZM0 341.625H1917V340.625H0V341.625ZM0 361.75H1917V360.75H0V361.75ZM0 381.875H1917V380.875H0V381.875ZM0 402H1917V401H0V402ZM0 422.125H1917V421.125H0V422.125ZM0 442.25H1917V441.25H0V442.25ZM0 462.375H1917V461.375H0V462.375ZM0 482.5H1917V481.5H0V482.5Z" fill="white" fill-opacity="0.03"/>
<path d="M0 803.5H1917V802.5H0V803.5ZM0 823.625H1917V822.625H0V823.625ZM0 843.75H1917V842.75H0V843.75ZM0 863.875H1917V862.875H0V863.875ZM0 884H1917V883H0V884ZM0 904.125H1917V903.125H0V904.125ZM0 924.25H1917V923.25H0V924.25ZM0 944.375H1917V943.375H0V944.375ZM0 964.5H1917V963.5H0V964.5Z" fill="white" fill-opacity="0.03"/>
</svg>
