<svg width="1867" height="787" viewBox="0 0 1867 787" fill="none" xmlns="http://www.w3.org/2000/svg">
<g filter="url(#filter0_b_115_286)">
<rect x="-596.227" y="499.905" width="3162.88" height="288.872" transform="rotate(-9.09395 -596.227 499.905)" fill="white" fill-opacity="0.04"/>
<rect x="-595.081" y="500.734" width="3160.88" height="286.872" transform="rotate(-9.09395 -595.081 500.734)" stroke="url(#paint0_linear_115_286)" stroke-width="2"/>
</g>
<g opacity="0.68">
<path d="M264.583 362.252L291.285 529.14L-566.286 698.452" stroke="white" stroke-opacity="0.2" stroke-width="0.25" stroke-linecap="round" stroke-linejoin="round"/>
<path d="M404.29 339.9L430.991 506.787L-564.021 712.613" stroke="white" stroke-opacity="0.2" stroke-width="0.25" stroke-linecap="round" stroke-linejoin="round"/>
<path d="M543.995 317.548L570.696 484.435L-560.247 736.207" stroke="white" stroke-opacity="0.2" stroke-width="0.25" stroke-linecap="round" stroke-linejoin="round"/>
<path d="M683.713 295.194L710.414 462.081L-552.045 783.209" stroke="white" stroke-opacity="0.2" stroke-width="0.25" stroke-linecap="round" stroke-linejoin="round"/>
<path d="M823.416 272.842L850.117 439.729L227.629 658.465" stroke="white" stroke-opacity="0.2" stroke-width="0.25" stroke-linecap="round" stroke-linejoin="round"/>
<path d="M963.126 250.489L989.827 417.377L1007.32 533.718" stroke="white" stroke-opacity="0.2" stroke-width="0.25" stroke-linecap="round" stroke-linejoin="round"/>
<path d="M1102.84 228.135L1129.54 395.022L1786.99 408.974" stroke="white" stroke-opacity="0.2" stroke-width="0.25" stroke-linecap="round" stroke-linejoin="round"/>
<path d="M1242.55 205.783L1269.25 372.67L2566.67 284.23" stroke="white" stroke-opacity="0.2" stroke-width="0.25" stroke-linecap="round" stroke-linejoin="round"/>
<path d="M1382.27 183.429L1408.97 350.316L2562.51 236.692" stroke="white" stroke-opacity="0.2" stroke-width="0.25" stroke-linecap="round" stroke-linejoin="round"/>
<path d="M1521.97 161.077L1548.67 327.964L2558.73 213.05" stroke="white" stroke-opacity="0.2" stroke-width="0.25" stroke-linecap="round" stroke-linejoin="round"/>
<path d="M1661.68 138.724L1688.38 305.611L2556.46 198.869" stroke="white" stroke-opacity="0.2" stroke-width="0.25" stroke-linecap="round" stroke-linejoin="round"/>
<path d="M1801.4 116.37L1828.1 283.257L2554.95 189.415" stroke="white" stroke-opacity="0.2" stroke-width="0.25" stroke-linecap="round" stroke-linejoin="round"/>
<path d="M-568.877 682.266L11.8616 573.846L-14.8395 406.959" stroke="white" stroke-opacity="0.2" stroke-width="0.25" stroke-linecap="round" stroke-linejoin="round"/>
<path d="M124.867 384.607L151.568 551.494L-567.798 689.011" stroke="white" stroke-opacity="0.2" stroke-width="0.25" stroke-linecap="round" stroke-linejoin="round"/>
<path d="M-573.322 654.485L2549.42 154.862" stroke="white" stroke-opacity="0.2" stroke-width="0.25" stroke-linecap="round" stroke-linejoin="round"/>
<path d="M-575.348 641.821L2547.39 142.197" stroke="white" stroke-opacity="0.2" stroke-width="0.25" stroke-linecap="round" stroke-linejoin="round"/>
<path d="M-577.375 629.158L2545.37 129.534" stroke="white" stroke-opacity="0.2" stroke-width="0.25" stroke-linecap="round" stroke-linejoin="round"/>
<path d="M-579.4 616.495L2543.34 116.871" stroke="white" stroke-opacity="0.2" stroke-width="0.25" stroke-linecap="round" stroke-linejoin="round"/>
<path d="M-581.427 603.83L2541.32 104.206" stroke="white" stroke-opacity="0.2" stroke-width="0.25" stroke-linecap="round" stroke-linejoin="round"/>
<path d="M-583.453 591.166L2539.29 91.5431" stroke="white" stroke-opacity="0.2" stroke-width="0.25" stroke-linecap="round" stroke-linejoin="round"/>
<path d="M-585.479 578.503L2537.26 78.8799" stroke="white" stroke-opacity="0.2" stroke-width="0.25" stroke-linecap="round" stroke-linejoin="round"/>
<path d="M-587.505 565.839L2535.24 66.2154" stroke="white" stroke-opacity="0.2" stroke-width="0.25" stroke-linecap="round" stroke-linejoin="round"/>
<path d="M-589.531 553.175L2533.21 53.5519" stroke="white" stroke-opacity="0.2" stroke-width="0.25" stroke-linecap="round" stroke-linejoin="round"/>
<path d="M-591.557 540.512L2531.19 40.8888" stroke="white" stroke-opacity="0.2" stroke-width="0.25" stroke-linecap="round" stroke-linejoin="round"/>
<path d="M-593.584 527.848L2529.16 28.2242" stroke="white" stroke-opacity="0.2" stroke-width="0.25" stroke-linecap="round" stroke-linejoin="round"/>
<path d="M-595.609 515.184L2527.13 15.5607" stroke="white" stroke-opacity="0.2" stroke-width="0.25" stroke-linecap="round" stroke-linejoin="round"/>
<path d="M-597.636 502.52L2525.11 2.89665" stroke="white" stroke-opacity="0.2" stroke-width="0.25" stroke-linecap="round" stroke-linejoin="round"/>
<path d="M2560.36 223.24L-562.382 722.863" stroke="white" stroke-opacity="0.2" stroke-width="0.25" stroke-linecap="round" stroke-linejoin="round"/>
<path d="M2558.79 213.451L-563.948 713.075" stroke="white" stroke-opacity="0.2" stroke-width="0.25" stroke-linecap="round" stroke-linejoin="round"/>
<path d="M2557.57 205.773L-565.177 705.396" stroke="white" stroke-opacity="0.2" stroke-width="0.25" stroke-linecap="round" stroke-linejoin="round"/>
<path d="M2562.42 236.143L-560.317 735.767" stroke="white" stroke-opacity="0.2" stroke-width="0.25" stroke-linecap="round" stroke-linejoin="round"/>
<path d="M2556.58 199.587L-566.166 699.21" stroke="white" stroke-opacity="0.2" stroke-width="0.25" stroke-linecap="round" stroke-linejoin="round"/>
<path d="M2555.76 194.498L-566.981 694.121" stroke="white" stroke-opacity="0.2" stroke-width="0.25" stroke-linecap="round" stroke-linejoin="round"/>
<path d="M2551.63 168.663L-571.114 668.287" stroke="white" stroke-opacity="0.2" stroke-width="0.25" stroke-linecap="round" stroke-linejoin="round"/>
<path d="M2551.45 167.525L-571.296 667.148" stroke="white" stroke-opacity="0.2" stroke-width="0.25" stroke-linecap="round" stroke-linejoin="round"/>
<path d="M2552.05 171.276L-570.696 670.899" stroke="white" stroke-opacity="0.2" stroke-width="0.25" stroke-linecap="round" stroke-linejoin="round"/>
<path d="M2551.83 169.908L-570.914 669.532" stroke="white" stroke-opacity="0.2" stroke-width="0.25" stroke-linecap="round" stroke-linejoin="round"/>
<path d="M2554 183.505L-568.739 683.128" stroke="white" stroke-opacity="0.2" stroke-width="0.25" stroke-linecap="round" stroke-linejoin="round"/>
<path d="M2555.08 190.236L-567.662 689.86" stroke="white" stroke-opacity="0.2" stroke-width="0.25" stroke-linecap="round" stroke-linejoin="round"/>
<path d="M2565.27 253.933L-557.471 753.556" stroke="white" stroke-opacity="0.2" stroke-width="0.25" stroke-linecap="round" stroke-linejoin="round"/>
<path d="M2552.56 174.461L-570.186 674.084" stroke="white" stroke-opacity="0.2" stroke-width="0.25" stroke-linecap="round" stroke-linejoin="round"/>
<path d="M2552.29 172.786L-570.454 672.409" stroke="white" stroke-opacity="0.2" stroke-width="0.25" stroke-linecap="round" stroke-linejoin="round"/>
<path d="M2553.57 180.801L-569.172 680.425" stroke="white" stroke-opacity="0.2" stroke-width="0.25" stroke-linecap="round" stroke-linejoin="round"/>
<path d="M2553.19 178.427L-569.552 678.05" stroke="white" stroke-opacity="0.2" stroke-width="0.25" stroke-linecap="round" stroke-linejoin="round"/>
<path d="M2552.86 176.329L-569.887 675.953" stroke="white" stroke-opacity="0.2" stroke-width="0.25" stroke-linecap="round" stroke-linejoin="round"/>
<path d="M2554.5 186.617L-568.241 686.241" stroke="white" stroke-opacity="0.2" stroke-width="0.25" stroke-linecap="round" stroke-linejoin="round"/>
<path d="M2566.67 284.23L-552.045 783.209" stroke="white" stroke-opacity="0.2" stroke-width="0.25" stroke-linecap="round" stroke-linejoin="round"/>
</g>
<path d="M-533.538 558.532L-448.183 691.918L-411.846 686.101L-371.6 532.611L-410.899 538.901L-436.297 648.493L-494.041 552.21L-533.538 558.532ZM-334.575 673.733L-298.632 667.98L-307.072 615.251L-265.6 608.613C-244.272 605.199 -239.318 612.102 -235.43 636.393L-233.85 646.268C-233.186 650.415 -231.598 654.009 -229.117 656.853L-188.83 650.404C-197.006 643.611 -199.061 630.774 -202.601 613.719C-206.015 597.455 -209.057 589.84 -225.472 585.986C-211.38 577.856 -204.872 562.839 -207.59 545.855C-211.921 518.799 -232.12 510.285 -269.445 516.259L-357.524 530.358L-334.575 673.733ZM-316.872 554.03L-277.769 547.771C-257.033 544.452 -246.772 544.025 -244.591 557.651C-242.441 571.08 -251.746 576.216 -271.1 579.314L-311.782 585.825L-316.872 554.03ZM55.7536 515.045C46.6751 484.901 12.0661 467.351 -33.3557 474.621C-86.0845 483.061 -114.457 518.39 -107.187 563.812C-99.8847 609.431 -60.1565 633.656 -11.1799 625.817C10.9385 622.276 27.0767 613.009 38.5537 597.399L43.1206 613.277L70.3737 608.914L57.8242 530.512L-12.8758 541.829L-8.16579 571.254L24.4194 566.039C20.1467 581.103 6.22853 592.851 -13.9151 596.075C-42.5505 600.659 -63.106 586.125 -67.6896 557.489C-72.2732 528.854 -57.2812 508.63 -28.6457 504.047C-7.31717 500.633 7.5738 506.351 16.6513 521.304L55.7536 515.045ZM83.5975 606.798L122.305 600.602L130.273 568.134L193.469 558.019L211.371 586.346L251.263 579.96L162.946 447.048L128.583 452.549L83.5975 606.798ZM137.871 537.144L149.551 489.904L175.788 531.075L137.871 537.144ZM242.255 434.354L265.205 577.729L299.765 572.197L284.18 474.836L342.422 565.369L372.242 560.596L401.345 457.702L416.676 553.483L451.236 547.951L428.287 404.576L382.273 411.942L351.314 522.221L288.664 426.925L242.255 434.354ZM462.159 399.155L485.108 542.53L612.487 522.141L607.777 492.715L516.341 507.351L511.346 476.148L592.711 463.124L588.001 433.699L506.636 446.723L502.811 422.827L594.248 408.191L589.538 378.766L462.159 399.155ZM692.716 362.25L715.666 505.625L750.226 500.093L734.642 402.733L792.883 493.265L822.703 488.492L851.806 385.599L867.138 481.38L901.698 475.848L878.748 332.473L832.734 339.838L801.775 450.118L739.126 354.822L692.716 362.25ZM915.623 473.619L954.331 467.423L962.299 434.956L1025.49 424.84L1043.4 453.167L1083.29 446.781L994.972 313.869L960.609 319.37L915.623 473.619ZM969.897 403.965L981.577 356.725L1007.81 397.896L969.897 403.965ZM1097.23 444.55L1133.17 438.797L1124.73 386.068L1166.2 379.43C1187.53 376.016 1192.49 382.919 1196.38 407.21L1197.96 417.085C1198.62 421.232 1200.21 424.826 1202.69 427.67L1242.98 421.221C1234.8 414.428 1232.74 401.591 1229.2 384.536C1225.79 368.272 1222.75 360.657 1206.33 356.803C1220.43 348.673 1226.93 333.656 1224.22 316.672C1219.88 289.616 1199.68 281.102 1162.36 287.076L1074.28 301.175L1097.23 444.55ZM1114.93 324.847L1154.04 318.588C1174.77 315.269 1185.03 314.842 1187.21 328.468C1189.36 341.897 1180.06 347.033 1160.7 350.131L1120.02 356.642L1114.93 324.847ZM1282.3 267.878L1246.36 273.631L1269.31 417.006L1305.25 411.253L1297.31 361.684L1312.89 342.582L1375.55 400L1419.59 392.951L1334.66 316.615L1388.94 250.808L1342.73 258.205L1291.12 322.977L1282.3 267.878ZM1414.57 246.706L1437.52 390.08L1564.9 369.691L1560.19 340.266L1468.76 354.902L1463.76 323.699L1545.13 310.675L1540.42 281.25L1459.05 294.274L1455.23 270.378L1546.66 255.742L1541.95 226.317L1414.57 246.706ZM1553.46 224.474L1558.17 253.9L1607.35 246.029L1625.58 359.978L1661.53 354.225L1643.29 240.276L1692.46 232.405L1687.75 202.979L1553.46 224.474ZM1727.48 343.668L1763.42 337.915L1756.22 292.888L1805.19 285.049C1838.77 279.675 1854.86 257.452 1849.99 227.04C1845.15 196.824 1823.02 181.327 1789.45 186.701L1704.53 200.293L1727.48 343.668ZM1745.18 223.966L1780.53 218.307C1801.86 214.893 1811.52 216.994 1814.14 233.385C1816.67 249.184 1806.8 254.612 1784.49 258.184L1751.51 263.463L1745.18 223.966ZM1904.45 168.293L1868.51 174.046L1891.46 317.421L2001.06 299.877L1996.35 270.452L1922.69 282.243L1904.45 168.293ZM2005.01 299.245L2043.72 293.049L2051.69 260.581L2114.89 250.466L2132.79 278.792L2172.68 272.407L2084.36 139.495L2050 144.996L2005.01 299.245ZM2059.29 229.591L2070.97 182.351L2097.2 223.522L2059.29 229.591ZM2329.32 153.961C2320.58 122.142 2285.58 103.439 2238.38 110.994C2185.65 119.434 2157.28 154.762 2164.55 200.184C2171.82 245.606 2209.8 270.313 2262.53 261.873C2309.73 254.318 2337.47 225.167 2335.57 189.216L2296.27 195.507C2296.9 214.647 2283.1 228.401 2257.82 232.448C2229.19 237.031 2208.63 222.497 2204.05 193.862C2199.47 165.226 2214.46 145.003 2243.09 140.419C2266.79 136.626 2282.66 143.403 2290.21 160.22L2329.32 153.961ZM2347.7 97.3434L2370.65 240.718L2498.03 220.329L2493.32 190.904L2401.89 205.54L2396.89 174.337L2478.26 161.313L2473.55 131.888L2392.18 144.911L2388.36 121.016L2479.79 106.38L2475.08 76.9544L2347.7 97.3434Z" fill="white"/>
<defs>
<filter id="filter0_b_115_286" x="-796.227" y="-200" width="3568.78" height="1185.15" filterUnits="userSpaceOnUse" color-interpolation-filters="sRGB">
<feFlood flood-opacity="0" result="BackgroundImageFix"/>
<feGaussianBlur in="BackgroundImage" stdDeviation="100"/>
<feComposite in2="SourceAlpha" operator="in" result="effect1_backgroundBlur_115_286"/>
<feBlend mode="normal" in="SourceGraphic" in2="effect1_backgroundBlur_115_286" result="shape"/>
</filter>
<linearGradient id="paint0_linear_115_286" x1="-460.567" y1="499.905" x2="2498.53" y2="1190.09" gradientUnits="userSpaceOnUse">
<stop stop-color="white" stop-opacity="0"/>
<stop offset="0.414678" stop-color="white" stop-opacity="0.55"/>
</linearGradient>
</defs>
</svg>
