<?xml version="1.0" encoding="utf-8"?><svg viewBox="0 0 502.66 502.66" xmlns="http://www.w3.org/2000/svg" xmlns:xlink="http://www.w3.org/1999/xlink"><style>:root>svg{display:none}:root>svg:target{display:block}</style><svg viewBox="0 0 502.664 502.664" id="icon" xmlns="http://www.w3.org/2000/svg"><path d="M153.821 358.226L0 274.337v-46.463l153.821-83.414v54.574L46.636 250.523l107.185 53.431v54.272zm26.273 29.358L282.103 115.08h32.227L212.084 387.584h-31.99zm168.749-29.358v-54.272l107.164-52.999-107.164-52.59v-53.927l153.821 83.522v46.183l-153.821 84.083z"/></svg><svg viewBox="0 0 22 22" id="instagram" xmlns="http://www.w3.org/2000/svg"><path d="M10.985 2.658h4.14c.974 0 1.46.243 1.826.365.487.244.852.365 1.218.73.365.366.608.731.73 1.218.122.365.244.853.366 1.827v8.28c0 .974-.244 1.46-.366 1.826-.243.487-.365.852-.73 1.218-.366.365-.73.608-1.218.73-.365.122-.852.244-1.826.365h-8.28c-.974 0-1.461-.243-1.827-.365-.487-.244-.852-.365-1.217-.73-.365-.366-.609-.731-.73-1.218-.123-.365-.244-.852-.366-1.827v-8.28c0-.973.243-1.46.365-1.826.244-.487.366-.852.73-1.217.366-.366.731-.61 1.218-.731.366-.122.853-.244 1.827-.365h4.14zm0-1.827h-4.14c-1.096 0-1.827.244-2.435.487a5.317 5.317 0 00-1.827 1.218c-.609.609-.852 1.096-1.217 1.826-.244.61-.366 1.34-.487 2.436v8.28c0 1.095.243 1.826.487 2.435a5.317 5.317 0 001.217 1.826c.609.609 1.096.852 1.827 1.218.608.243 1.339.365 2.435.487h8.28c1.096 0 1.826-.244 2.435-.487a5.316 5.316 0 001.826-1.218c.61-.609.853-1.096 1.218-1.826.244-.61.365-1.34.487-2.436v-8.28c0-1.095-.244-1.826-.487-2.435a5.318 5.318 0 00-1.218-1.826c-.608-.609-1.095-.852-1.826-1.218-.609-.243-1.34-.365-2.435-.487h-4.14z"/><path d="M10.985 5.702a5.197 5.197 0 00-5.236 5.236 5.197 5.197 0 005.236 5.235 5.197 5.197 0 005.236-5.235 5.197 5.197 0 00-5.236-5.236zm0 8.645a3.404 3.404 0 01-3.41-3.41 3.404 3.404 0 013.41-3.409c1.826 0 3.41 1.461 3.41 3.41 0 1.826-1.584 3.409-3.41 3.409zm5.357-7.549a1.218 1.218 0 100-2.436 1.218 1.218 0 000 2.436z"/></svg><svg viewBox="0 0 21 20" id="linkedin" xmlns="http://www.w3.org/2000/svg"><path d="M5.29 19.678H1.15V6.65h4.14v13.028zM3.22 4.823C1.88 4.823.907 3.85.907 2.51A2.311 2.311 0 013.22.196c1.34 0 2.314.974 2.314 2.314S4.559 4.823 3.22 4.823zm17.17 14.855h-4.14v-7.062c0-2.07-.853-2.679-2.07-2.679-1.218 0-2.436.974-2.436 2.8v6.941h-4.14V6.65H11.5v1.826c.365-.852 1.826-2.192 3.896-2.192 2.314 0 4.749 1.34 4.749 5.358v8.036h.244z"/></svg></svg>