<svg width="98" height="89" viewBox="0 0 98 89" fill="none" xmlns="http://www.w3.org/2000/svg">
<g filter="url(#filter0_d_106_229)">
<path d="M22.2553 36.6324C38.8713 29.2132 49.9513 24.3221 55.4952 21.9589C71.3241 15.2116 74.6133 14.0395 76.7571 14.0004C77.2286 13.9923 78.2828 14.112 78.9657 14.6799C79.5424 15.1594 79.701 15.8072 79.7769 16.2618C79.8529 16.7165 79.9474 17.7521 79.8723 18.5614C79.0145 27.798 75.3029 50.2127 73.4147 60.5578C72.6157 64.9353 71.0424 66.403 69.5194 66.5466C66.2094 66.8588 63.6959 64.3048 60.4901 62.1511C55.4735 58.781 52.6395 56.6831 47.77 53.3945C42.1426 49.594 45.7906 47.5052 48.9977 44.0914C49.837 43.198 64.4208 29.6034 64.7031 28.3702C64.7384 28.2159 64.7712 27.641 64.4379 27.3374C64.1046 27.0338 63.6127 27.1377 63.2578 27.2202C62.7546 27.3373 54.7406 32.7658 39.2157 43.5058C36.941 45.1067 34.8806 45.8866 33.0345 45.8458C30.9994 45.8007 27.0846 44.6665 24.1744 43.697C20.6049 42.5079 17.768 41.8792 18.015 39.8597C18.1437 38.8078 19.5571 37.732 22.2553 36.6324Z" fill="#CD63FF"/>
</g>
<path d="M22.2553 36.6324C38.8713 29.2132 49.9513 24.3221 55.4952 21.9589C71.3242 15.2116 74.6133 14.0395 76.7571 14.0004C77.2286 13.9923 78.2828 14.112 78.9657 14.6799C79.5424 15.1594 79.701 15.8072 79.777 16.2618C79.8529 16.7165 79.9474 17.7521 79.8723 18.5614C79.0145 27.798 75.3029 50.2127 73.4147 60.5578C72.6157 64.9353 71.0424 66.403 69.5194 66.5466C66.2094 66.8588 63.6959 64.3048 60.4901 62.1511C55.4735 58.781 52.6395 56.6831 47.77 53.3945C42.1426 49.594 45.7906 47.5052 48.9977 44.0914C49.837 43.198 64.4208 29.6034 64.7031 28.3702C64.7384 28.2159 64.7712 27.641 64.4379 27.3374C64.1046 27.0338 63.6127 27.1377 63.2578 27.2202C62.7546 27.3373 54.7406 32.7658 39.2157 43.5058C36.941 45.1067 34.8806 45.8866 33.0345 45.8458C30.9994 45.8007 27.0846 44.6665 24.1744 43.697C20.6049 42.5079 17.768 41.8792 18.015 39.8597C18.1437 38.8078 19.5571 37.732 22.2553 36.6324Z" fill="white" fill-opacity="0.5"/>
<path d="M22.444 37.0954L22.4516 37.0923L22.4591 37.089C39.0759 29.6695 50.152 24.7801 55.6913 22.4189C63.6076 19.0444 68.3763 17.0693 71.4324 15.9327C74.497 14.7929 75.786 14.5182 76.7659 14.5003C76.9615 14.497 77.2998 14.5208 77.6632 14.6098C78.0296 14.6995 78.384 14.8465 78.646 15.0644C79.079 15.4244 79.2127 15.9185 79.2838 16.3442C79.355 16.771 79.4444 17.7614 79.3744 18.5152C78.5189 27.7269 74.8113 50.1212 72.9228 60.4681C72.131 64.8061 70.6315 65.9395 69.4724 66.0488C67.9687 66.1906 66.623 65.6877 65.2236 64.8452C64.5226 64.4232 63.82 63.9233 63.0822 63.3862C62.9599 63.2971 62.8365 63.207 62.7122 63.1161C62.0915 62.6626 61.445 62.1903 60.7689 61.7361C58.2645 60.0537 56.3049 58.6888 54.361 57.3322L54.104 57.1529C52.2461 55.8562 50.3808 54.5544 48.0499 52.9802C46.6699 52.0482 45.9248 51.2629 45.5823 50.5907C45.2571 49.9525 45.2781 49.3847 45.5306 48.7947C45.797 48.1721 46.3217 47.5275 47.0224 46.7968C47.3295 46.4766 47.6608 46.1492 48.0092 45.8051C48.0541 45.7607 48.0994 45.7159 48.1449 45.6709C48.5408 45.2795 48.9544 44.8678 49.3621 44.4338C49.5548 44.2286 50.5055 43.323 51.8547 42.0376C53.3718 40.5923 55.3928 38.667 57.407 36.7175C59.3009 34.8845 61.1811 33.0373 62.6067 31.5696C63.3189 30.8365 63.9225 30.1931 64.3589 29.6912C64.5766 29.4409 64.7585 29.2192 64.893 29.0353C64.9601 28.9435 65.0202 28.8547 65.0682 28.772C65.1114 28.6974 65.1647 28.5947 65.1905 28.4817C65.2227 28.341 65.2409 28.0964 65.2036 27.8383C65.1665 27.5814 65.0624 27.23 64.7746 26.9678C64.4867 26.7055 64.144 26.6363 63.86 26.634C63.5842 26.6318 63.3188 26.6927 63.1445 26.7332C63.0356 26.7586 62.9146 26.8229 62.8373 26.8648C62.7368 26.9192 62.6093 26.9936 62.4576 27.0856C62.1533 27.2704 61.7331 27.5373 61.1993 27.8849C60.1308 28.5806 58.5937 29.6078 56.5895 30.9654C52.5804 33.6811 46.6941 37.7244 38.9313 43.0946L38.928 43.0969C36.6987 44.6658 34.7431 45.3835 33.0456 45.3459C32.0902 45.3247 30.651 45.0434 29.0571 44.6338C27.4751 44.2272 25.7806 43.705 24.3325 43.2226C23.8874 43.0743 23.4592 42.9363 23.0505 42.8046C21.7842 42.3963 20.7046 42.0483 19.8858 41.6419C19.351 41.3764 18.9834 41.111 18.7628 40.8331C18.5572 40.5741 18.4662 40.2894 18.5113 39.9204C18.5511 39.5949 18.8063 39.1703 19.4744 38.6618C20.131 38.1621 21.1132 37.6378 22.444 37.0954Z" stroke="white" stroke-opacity="0.5"/>
<path d="M22.2553 36.6324C38.8713 29.2132 49.9513 24.3221 55.4952 21.9589C71.3242 15.2116 74.6133 14.0395 76.7571 14.0004C77.2286 13.9923 78.2828 14.112 78.9657 14.6799C79.5424 15.1594 79.701 15.8072 79.777 16.2618C79.8529 16.7165 79.9474 17.7521 79.8723 18.5614C79.0145 27.798 75.3029 50.2127 73.4147 60.5578C72.6157 64.9353 71.0424 66.403 69.5194 66.5466C66.2094 66.8588 63.6959 64.3048 60.4901 62.1511C55.4735 58.781 52.6395 56.6831 47.77 53.3945C42.1426 49.594 45.7906 47.5052 48.9977 44.0914C49.837 43.198 64.4208 29.6034 64.7031 28.3702C64.7384 28.2159 64.7712 27.641 64.4379 27.3374C64.1046 27.0338 63.6127 27.1377 63.2578 27.2202C62.7546 27.3373 54.7406 32.7658 39.2157 43.5058C36.941 45.1067 34.8806 45.8866 33.0345 45.8458C30.9994 45.8007 27.0846 44.6665 24.1744 43.697C20.6049 42.5079 17.768 41.8792 18.015 39.8597C18.1437 38.8078 19.5571 37.732 22.2553 36.6324Z" fill="white" fill-opacity="0.5"/>
<path d="M22.444 37.0954L22.4516 37.0923L22.4591 37.089C39.0759 29.6695 50.152 24.7801 55.6913 22.4189C63.6076 19.0444 68.3763 17.0693 71.4324 15.9327C74.497 14.7929 75.786 14.5182 76.7659 14.5003C76.9615 14.497 77.2998 14.5208 77.6632 14.6098C78.0296 14.6995 78.384 14.8465 78.646 15.0644C79.079 15.4244 79.2127 15.9185 79.2838 16.3442C79.355 16.771 79.4444 17.7614 79.3744 18.5152C78.5189 27.7269 74.8113 50.1212 72.9228 60.4681C72.131 64.8061 70.6315 65.9395 69.4724 66.0488C67.9687 66.1906 66.623 65.6877 65.2236 64.8452C64.5226 64.4232 63.82 63.9233 63.0822 63.3862C62.9599 63.2971 62.8365 63.207 62.7122 63.1161C62.0915 62.6626 61.445 62.1903 60.7689 61.7361C58.2645 60.0537 56.3049 58.6888 54.361 57.3322L54.104 57.1529C52.2461 55.8562 50.3808 54.5544 48.0499 52.9802C46.6699 52.0482 45.9248 51.2629 45.5823 50.5907C45.2571 49.9525 45.2781 49.3847 45.5306 48.7947C45.797 48.1721 46.3217 47.5275 47.0224 46.7968C47.3295 46.4766 47.6608 46.1492 48.0092 45.8051C48.0541 45.7607 48.0994 45.7159 48.1449 45.6709C48.5408 45.2795 48.9544 44.8678 49.3621 44.4338C49.5548 44.2286 50.5055 43.323 51.8547 42.0376C53.3718 40.5923 55.3928 38.667 57.407 36.7175C59.3009 34.8845 61.1811 33.0373 62.6067 31.5696C63.3189 30.8365 63.9225 30.1931 64.3589 29.6912C64.5766 29.4409 64.7585 29.2192 64.893 29.0353C64.9601 28.9435 65.0202 28.8547 65.0682 28.772C65.1114 28.6974 65.1647 28.5947 65.1905 28.4817C65.2227 28.341 65.2409 28.0964 65.2036 27.8383C65.1665 27.5814 65.0624 27.23 64.7746 26.9678C64.4867 26.7055 64.144 26.6363 63.86 26.634C63.5842 26.6318 63.3188 26.6927 63.1445 26.7332C63.0356 26.7586 62.9146 26.8229 62.8373 26.8648C62.7368 26.9192 62.6093 26.9936 62.4576 27.0856C62.1533 27.2704 61.7331 27.5373 61.1993 27.8849C60.1308 28.5806 58.5937 29.6078 56.5895 30.9654C52.5804 33.6811 46.6941 37.7244 38.9313 43.0946L38.928 43.0969C36.6987 44.6658 34.7431 45.3835 33.0456 45.3459C32.0902 45.3247 30.651 45.0434 29.0571 44.6338C27.4751 44.2272 25.7806 43.705 24.3325 43.2226C23.8874 43.0743 23.4592 42.9363 23.0505 42.8046C21.7842 42.3963 20.7046 42.0483 19.8858 41.6419C19.351 41.3764 18.9834 41.111 18.7628 40.8331C18.5572 40.5741 18.4662 40.2894 18.5113 39.9204C18.5511 39.5949 18.8063 39.1703 19.4744 38.6618C20.131 38.1621 21.1132 37.6378 22.444 37.0954Z" stroke="white" stroke-opacity="0.5"/>
<path d="M22.2553 36.6324C38.8713 29.2132 49.9513 24.3221 55.4952 21.9589C71.3242 15.2116 74.6133 14.0395 76.7571 14.0004C77.2286 13.9923 78.2828 14.112 78.9657 14.6799C79.5424 15.1594 79.701 15.8072 79.777 16.2618C79.8529 16.7165 79.9474 17.7521 79.8723 18.5614C79.0145 27.798 75.3029 50.2127 73.4147 60.5578C72.6157 64.9353 71.0424 66.403 69.5194 66.5466C66.2094 66.8588 63.6959 64.3048 60.4901 62.1511C55.4735 58.781 52.6395 56.6831 47.77 53.3945C42.1426 49.594 45.7906 47.5052 48.9977 44.0914C49.837 43.198 64.4208 29.6034 64.7031 28.3702C64.7384 28.2159 64.7712 27.641 64.4379 27.3374C64.1046 27.0338 63.6127 27.1377 63.2578 27.2202C62.7546 27.3373 54.7406 32.7658 39.2157 43.5058C36.941 45.1067 34.8806 45.8866 33.0345 45.8458C30.9994 45.8007 27.0846 44.6665 24.1744 43.697C20.6049 42.5079 17.768 41.8792 18.015 39.8597C18.1437 38.8078 19.5571 37.732 22.2553 36.6324Z" fill="white" fill-opacity="0.5"/>
<path d="M22.444 37.0954L22.4516 37.0923L22.4591 37.089C39.0759 29.6695 50.152 24.7801 55.6913 22.4189C63.6076 19.0444 68.3763 17.0693 71.4324 15.9327C74.497 14.7929 75.786 14.5182 76.7659 14.5003C76.9615 14.497 77.2998 14.5208 77.6632 14.6098C78.0296 14.6995 78.384 14.8465 78.646 15.0644C79.079 15.4244 79.2127 15.9185 79.2838 16.3442C79.355 16.771 79.4444 17.7614 79.3744 18.5152C78.5189 27.7269 74.8113 50.1212 72.9228 60.4681C72.131 64.8061 70.6315 65.9395 69.4724 66.0488C67.9687 66.1906 66.623 65.6877 65.2236 64.8452C64.5226 64.4232 63.82 63.9233 63.0822 63.3862C62.9599 63.2971 62.8365 63.207 62.7122 63.1161C62.0915 62.6626 61.445 62.1903 60.7689 61.7361C58.2645 60.0537 56.3049 58.6888 54.361 57.3322L54.104 57.1529C52.2461 55.8562 50.3808 54.5544 48.0499 52.9802C46.6699 52.0482 45.9248 51.2629 45.5823 50.5907C45.2571 49.9525 45.2781 49.3847 45.5306 48.7947C45.797 48.1721 46.3217 47.5275 47.0224 46.7968C47.3295 46.4766 47.6608 46.1492 48.0092 45.8051C48.0541 45.7607 48.0994 45.7159 48.1449 45.6709C48.5408 45.2795 48.9544 44.8678 49.3621 44.4338C49.5548 44.2286 50.5055 43.323 51.8547 42.0376C53.3718 40.5923 55.3928 38.667 57.407 36.7175C59.3009 34.8845 61.1811 33.0373 62.6067 31.5696C63.3189 30.8365 63.9225 30.1931 64.3589 29.6912C64.5766 29.4409 64.7585 29.2192 64.893 29.0353C64.9601 28.9435 65.0202 28.8547 65.0682 28.772C65.1114 28.6974 65.1647 28.5947 65.1905 28.4817C65.2227 28.341 65.2409 28.0964 65.2036 27.8383C65.1665 27.5814 65.0624 27.23 64.7746 26.9678C64.4867 26.7055 64.144 26.6363 63.86 26.634C63.5842 26.6318 63.3188 26.6927 63.1445 26.7332C63.0356 26.7586 62.9146 26.8229 62.8373 26.8648C62.7368 26.9192 62.6093 26.9936 62.4576 27.0856C62.1533 27.2704 61.7331 27.5373 61.1993 27.8849C60.1308 28.5806 58.5937 29.6078 56.5895 30.9654C52.5804 33.6811 46.6941 37.7244 38.9313 43.0946L38.928 43.0969C36.6987 44.6658 34.7431 45.3835 33.0456 45.3459C32.0902 45.3247 30.651 45.0434 29.0571 44.6338C27.4751 44.2272 25.7806 43.705 24.3325 43.2226C23.8874 43.0743 23.4592 42.9363 23.0505 42.8046C21.7842 42.3963 20.7046 42.0483 19.8858 41.6419C19.351 41.3764 18.9834 41.111 18.7628 40.8331C18.5572 40.5741 18.4662 40.2894 18.5113 39.9204C18.5511 39.5949 18.8063 39.1703 19.4744 38.6618C20.131 38.1621 21.1132 37.6378 22.444 37.0954Z" stroke="white" stroke-opacity="0.5"/>
<defs>
<filter id="filter0_d_106_229" x="0" y="0" width="97.8998" height="88.5728" filterUnits="userSpaceOnUse" color-interpolation-filters="sRGB">
<feFlood flood-opacity="0" result="BackgroundImageFix"/>
<feColorMatrix in="SourceAlpha" type="matrix" values="0 0 0 0 0 0 0 0 0 0 0 0 0 0 0 0 0 0 127 0" result="hardAlpha"/>
<feOffset dy="4"/>
<feGaussianBlur stdDeviation="9"/>
<feComposite in2="hardAlpha" operator="out"/>
<feColorMatrix type="matrix" values="0 0 0 0 0.803922 0 0 0 0 0.388235 0 0 0 0 1 0 0 0 0.7 0"/>
<feBlend mode="normal" in2="BackgroundImageFix" result="effect1_dropShadow_106_229"/>
<feBlend mode="normal" in="SourceGraphic" in2="effect1_dropShadow_106_229" result="shape"/>
</filter>
</defs>
</svg>
